<?xml version="1.0" encoding="UTF-8" standalone="no"?>
<svg
   height="48"
   viewBox="0 -960 960 960"
   width="48"
   fill="#e3e3e3"
   version="1.1"
   id="svg1"
   sodipodi:docname="tsunami_NaNdp_E3E3E3_FILL0_wght400_GRAD0_opsz48.svg"
   inkscape:version="1.3 (0e150ed6c4, 2023-07-21)"
   xmlns:inkscape="http://www.inkscape.org/namespaces/inkscape"
   xmlns:sodipodi="http://sodipodi.sourceforge.net/DTD/sodipodi-0.dtd"
   xmlns:xlink="http://www.w3.org/1999/xlink"
   xmlns="http://www.w3.org/2000/svg"
   xmlns:svg="http://www.w3.org/2000/svg">
  <defs
     id="defs1">
    <linearGradient
       id="linearGradient9"
       inkscape:collect="always">
      <stop
         style="stop-color:#071928;stop-opacity:1;"
         offset="0"
         id="stop11" />
      <stop
         style="stop-color:#1393ff;stop-opacity:1;"
         offset="0.62503988"
         id="stop9" />
      <stop
         style="stop-color:#ffffff;stop-opacity:1;"
         offset="1"
         id="stop10" />
    </linearGradient>
    <linearGradient
       inkscape:collect="always"
       xlink:href="#linearGradient9"
       id="linearGradient10"
       x1="80"
       y1="-120"
       x2="668"
       y2="-830"
       gradientUnits="userSpaceOnUse" />
  </defs>
  <sodipodi:namedview
     id="namedview1"
     pagecolor="#505050"
     bordercolor="#eeeeee"
     borderopacity="1"
     inkscape:showpageshadow="0"
     inkscape:pageopacity="0"
     inkscape:pagecheckerboard="0"
     inkscape:deskcolor="#d1d1d1"
     inkscape:zoom="24.854167"
     inkscape:cx="24"
     inkscape:cy="24"
     inkscape:window-width="2560"
     inkscape:window-height="1369"
     inkscape:window-x="-8"
     inkscape:window-y="-8"
     inkscape:window-maximized="1"
     inkscape:current-layer="svg1" />
  <path
     d="m 80,-120 v -60 q 35,-2 68,-15 33,-13 65,-37 31,24 65.5,37.5 34.5,13.5 68.5,13.5 32,0 68.5,-13.5 36.5,-13.5 65.5,-37.5 33,27 66.5,39 33.5,12 67.5,12 33,0 65,-13 32,-13 69,-39 35,26 68.5,38.5 33.5,12.5 62.5,14.5 v 60 q -30,-2 -66,-12 -36,-10 -65,-27 -34,20 -68,29.5 -34,9.5 -66,9.5 -32,0 -66,-9.5 -34,-9.5 -68,-29.5 -31,20 -65.5,29.5 -34.5,9.5 -68.5,9.5 -33,0 -67,-9.5 -34,-9.5 -67,-29.5 -29,17 -65.5,27 -36.5,10 -67.5,12 z m 0,-190 v -70 q 0,-95 38.5,-178.5 38.5,-83.5 104,-146 65.5,-62.5 153,-99 Q 463,-840 560,-840 q 28,0 56.5,2.5 28.5,2.5 51.5,7.5 -19,31 -28.5,64.5 -9.5,33.5 -9.5,62.5 0,59 42,106 42,47 101,47 h 107 v 60 H 773 q -85,0 -144,-64 -59,-64 -59,-149 0,-14 3.5,-33 3.5,-19 8.5,-41 -85,20 -138.5,88 -53.5,68 -53.5,149 0,38 13.5,74 13.5,36 38.5,70 10,-7 19.5,-13 9.5,-6 18.5,-13 31,25 67.5,38 36.5,13 67.5,13 30,0 66.5,-13.5 36.5,-13.5 67.5,-37.5 29,22 63,36 34,14 68,16 v 60 q -30,-2 -66,-12 -36,-10 -65,-27 -34,20 -66.5,29.5 -32.5,9.5 -67.5,9.5 -35,0 -71,-11 -36,-11 -63,-28 -32,20 -66,29 -34,9 -68,10 -32,0 -67.5,-10.5 Q 244,-331 213,-349 q -29,17 -65.5,27 -36.5,10 -67.5,12 z m 265,-61 q 6,0 16,-1 10,-1 21,-2 -25,-41 -38.5,-82.5 Q 330,-498 330,-540 q 0,-78 41,-149 41,-71 109,-106 v 23 q -80,17 -141.5,54 -61.5,37 -104,88 -42.5,51 -66,114 -23.5,63 -28.5,134 23,-13 41,-21.5 18,-8.5 32,-19.5 36,26 66.5,39 30.5,13 65.5,13 z m -62,-193 z"
     id="path1"
     style="fill:url(#linearGradient10);fill-opacity:1" />
</svg>
